<?xml version="1.0" encoding="UTF-8"?>
<!DOCTYPE svg PUBLIC "-//W3C//DTD SVG 1.1//EN" "http://www.w3.org/Graphics/SVG/1.1/DTD/svg11.dtd">
<!-- Creator: CorelDRAW X7 -->
<svg xmlns="http://www.w3.org/2000/svg" xml:space="preserve" width="88.4422mm" height="15.482mm" version="1.1" style="shape-rendering:geometricPrecision; text-rendering:geometricPrecision; image-rendering:optimizeQuality; fill-rule:evenodd; clip-rule:evenodd"
viewBox="0 0 8844 1548"
 xmlns:xlink="http://www.w3.org/1999/xlink">
 <defs>
  <style type="text/css">
   <![CDATA[
    .fil1 {fill:black}
    .fil2 {fill:white}
    .fil0 {fill:black;fill-rule:nonzero}
   ]]>
  </style>
 </defs>
 <g id="Camada_x0020_1">
  <metadata id="CorelCorpID_0Corel-Layer"/>
  <path class="fil0" d="M2297 477l0 215 -381 0 0 -215 -106 0 0 593 106 0 0 -272 381 0 0 272 106 0 0 -593 -106 0zm351 106l432 0 0 -106 -432 0c-88,0 -159,72 -159,160l0 273c0,88 71,160 159,160l432 0 0 -106 -432 0c-30,0 -54,-25 -54,-54l0 -112 381 0 0 -106 -381 0 0 -55c0,-30 24,-54 54,-54zm1034 381l-248 -487 -249 487 -54 106 119 0 54 -106 130 -254 129 254 54 106 119 0 -54 -106zm260 -1c-37,-5 -66,-35 -72,-72l0 -414 -105 0 0 404c0,29 6,57 19,83 18,37 48,67 86,86 25,13 53,20 83,20l300 0 0 -106 -311 -1zm237 -486l0 106 243 0 0 487 106 0 0 -487 243 0 0 -106 -592 0zm1165 0l0 215 -381 0 0 -215 -106 0 0 593 106 0 0 -272 381 0 0 272 105 0 0 -593 -105 0zm396 0l0 106 243 0 0 487 106 0 0 -487 243 0 0 -106 -592 0zm1071 319c0,0 0,0 0,0 16,-2 32,-6 46,-13 55,-25 93,-81 93,-145 0,-44 -18,-84 -46,-113 -29,-29 -69,-46 -113,-46l-374 0 0 592 106 0 0 -272 105 0c39,0 72,20 90,50l3 6 57 110 54 106 118 0 -54 -106 -85 -169zm-288 -102l0 -110 268 0c19,0 31,9 38,16 6,6 16,19 16,39 0,21 -12,40 -32,49 -7,3 -14,5 -22,5l-268 1zm1029 270l-248 -487 -248 487 -54 106 118 0 55 -106 129 -254 130 254 54 106 118 0 -54 -106zm319 -381l296 0 0 -106 -296 0c-164,0 -297,133 -297,296 0,164 133,297 297,297l296 0 0 -106 -296 0c-105,0 -191,-86 -191,-191 0,-105 86,-190 191,-190zm973 -106l-156 0 -166 151 -78 72 -87 80 0 -303 -106 0 0 593 106 0 0 -147 149 -136 205 283 131 0 -257 -355 259 -238z"/>
  <g id="_1567503391392">
   <circle class="fil1" cx="774" cy="774" r="774"/>
   <path class="fil2" d="M868 1483l-231 -933 -138 694 -208 -366 -284 0c-5,-34 -7,-69 -7,-104l0 -1 353 0 98 173 175 -881 244 986 161 -630 150 352 367 0 0 1c0,35 -2,70 -7,104l-430 0 -55 -129 -188 734z"/>
  </g>
 </g>
</svg>
